<svg xmlns="http://www.w3.org/2000/svg" width="104" height="104" viewBox="0 0 104 104" xmlns:xlink="http://www.w3.org/1999/xlink"><defs><path id="a" d="M104 47.184V93.87H0V.497h104z"/></defs><g fill="none" fill-rule="evenodd"><g transform="translate(0 10)"><mask id="b" fill="#fff"><use xlink:href="#a"/></mask><path fill="#044E6D" d="M102.264.497H93.6v3.457h6.93v58.882h-3.46V9.156H93.6v53.68H10.402V10.89h29.46V7.42H8.667c-1.04 0-1.736.694-1.736 1.735v53.68H3.47V3.956h36.392V.496H1.735C.694.497 0 1.19 0 2.23v72.72c0 1.042.693 1.734 1.736 1.734h36.402v13.85h-3.47V94h34.665v-3.467h-3.47v-13.85h36.401c1.043 0 1.736-.69 1.736-1.733V2.23c0-1.04-.693-1.733-1.736-1.733zM62.402 90.533H41.598v-13.85h3.47v8.66c0 1.038.694 1.733 1.736 1.733h10.392c1.042 0 1.735-.695 1.735-1.734v-8.658h3.472v13.85zM48.53 83.608h6.94v-6.924h-6.94v6.924zm15.608-10.39H3.47v-6.925h97.06v6.924H64.137z" mask="url(#b)"/></g><path fill="#04A1BC" d="M46.762 31h40.476C88.294 31 89 30.31 89 29.286V1.726C89 .688 88.294 0 87.238 0H46.762C45.704 0 45 .69 45 1.725v27.56c0 1.026.704 1.715 1.762 1.715zm1.75-3.438V4.995L66.82 16.88c.352.177.704.345 1.056.345.352 0 .706-.168 1.058-.345L85.476 5.163v22.4H48.513zm4.05-24.113h29.22l-13.906 9.98L52.56 3.45zM16 66.233c0 .708.34 1.242 1.022 1.595.174.172.34.172.68.172s.68-.172 1.02-.353l6.292-4.938h23.284C49.32 62.71 50 62 50 60.94V39.756c0-1.05-.68-1.756-1.702-1.756H17.702c-1.02 0-1.702.706-1.702 1.756v26.477zm3.404-24.71h27.202v17.652H24.5c-.34 0-.68.18-1.02.353l-4.076 3.18V41.525z"/><path fill="#04A1BC" d="M25 49h18v-4H25M25 56h18v-4H25M70 39.707c0-1.02-.7-1.707-1.753-1.707H57.742C56.7 38 56 38.686 56 39.707v8.576c0 1.03.7 1.717 1.742 1.717h10.505C69.3 50 70 49.314 70 48.283v-8.576zm-10.505 6.87h7v-5.153h-7v5.152zM88 39.707c0-1.02-.702-1.707-1.75-1.707h-10.5c-1.048 0-1.75.686-1.75 1.707v8.576c0 1.03.702 1.717 1.75 1.717h10.5c1.048 0 1.75-.686 1.75-1.717v-8.576zm-10.497 6.87h6.994v-5.153h-6.994v5.152zM68.247 56H57.742C56.7 56 56 56.686 56 57.707v8.576c0 1.03.7 1.717 1.742 1.717h10.505C69.3 68 70 67.314 70 66.283v-8.576c0-1.02-.7-1.707-1.753-1.707zm-8.752 8.576h7v-5.152h-7v5.152zM86.25 56h-10.5c-1.048 0-1.75.686-1.75 1.707v8.576c0 1.03.702 1.717 1.75 1.717h10.5c1.048 0 1.75-.686 1.75-1.717v-8.576c0-1.02-.702-1.707-1.75-1.707zm-8.747 8.576h6.994v-5.152h-6.994v5.152zM36 29h4v-4h-4M30 29h4v-4h-4M22 29h4v-4h-4M16 29h4v-4h-4M36 8h4V4h-4M30 8h4V4h-4M22 8h4V4h-4M0 8h19V4H0M36 35h4v-4h-4M30 35h4v-4h-4M22 35h4v-4h-4M16 35h4v-4h-4"/></g></svg>