<svg xmlns="http://www.w3.org/2000/svg" width="104" height="104" viewBox="0 0 104 104" xmlns:xlink="http://www.w3.org/1999/xlink"><defs><path id="a" d="M0 103.87h104V0H0z"/></defs><g fill="none" fill-rule="evenodd"><g><mask id="b" fill="#fff"><use xlink:href="#a"/></mask><path fill="#044E6D" d="M102.264 20.804H79.737v-7.11C82.68 13 84.93 10.223 84.93 6.93 84.93 3.123 81.82 0 78 0c-3.818 0-6.93 3.122-6.93 6.93 0 3.295 2.25 5.9 5.195 6.763v7.11h-22.53v-7.11c2.945-.693 5.196-3.468 5.196-6.762C58.93 3.123 55.82 0 52 0c-3.818 0-6.93 3.122-6.93 6.93 0 3.295 2.25 5.9 5.194 6.763v7.11h-22.53v-7.11c2.946-.693 5.197-3.468 5.197-6.762C32.93 3.123 29.82 0 26 0c-3.818 0-6.93 3.122-6.93 6.93 0 3.295 2.25 5.9 5.195 6.763v7.11H1.735C.693 20.804 0 21.5 0 22.53V104h3.47V90.138h97.06V104H104V22.53c0-1.032-.693-1.726-1.736-1.726zM74.53 6.93c0-1.903 1.566-3.46 3.47-3.46 1.904 0 3.47 1.557 3.47 3.46 0 1.906-1.566 3.472-3.47 3.472-1.904 0-3.47-1.566-3.47-3.47zm-26 0c0-1.903 1.566-3.46 3.47-3.46 1.904 0 3.47 1.557 3.47 3.46 0 1.906-1.566 3.472-3.47 3.472-1.904 0-3.47-1.566-3.47-3.47zm-26 0c0-1.903 1.566-3.46 3.47-3.46 1.904 0 3.47 1.557 3.47 3.46 0 1.906-1.566 3.472-3.47 3.472-1.904 0-3.47-1.566-3.47-3.47zm74.54 79.737V29.47c0-1.04-.697-1.735-1.737-1.735H83.196v3.46h10.402v55.472H53.736V81.47h-3.47l-.002 5.197H10.402v-55.47h6.93v-3.462H8.668c-1.04 0-1.736.694-1.736 1.736v57.197H3.47V24.264h20.795v45.07c0 1.04.695 1.735 1.735 1.735h27.736v-3.472h-26V24.264h22.528v12.138h3.47l.002-12.137h22.529v22.54h-26v3.46H78c1.04 0 1.736-.694 1.736-1.736V24.264h20.793v62.402h-3.46z" mask="url(#b)"/></g><path fill="#04A1BC" d="M50 79h4v-4h-4M43 79h4v-4h-4M36 79h4v-4h-4M29 79h4v-4h-4M23 79h4v-4h-4M50 65h4v-4h-4M50 58h4v-4h-4M50 43h4v-4h-4M57 58h4v-4h-4M65 58h4v-4h-4M71 58h4v-4h-4M78 58h4v-4h-4M61 73h17v-4H61M61 81h27v-4H61M57 31h14v-4H57M30 31h16v-4H30"/></g></svg>