<svg xmlns="http://www.w3.org/2000/svg" width="194" height="110" viewBox="0 0 194 110" xmlns:xlink="http://www.w3.org/1999/xlink"><defs><path id="a" d="M0 93.882h94V0H0z"/><path id="c" d="M.008 63H69V.09H.008z"/><path id="e" d="M66 62.992H.008V.02H66z"/><path id="g" d="M.007 59V0h46.915v59z"/></defs><g fill="none" fill-rule="evenodd"><g transform="translate(50 16)"><mask id="b" fill="#fff"><use xlink:href="#a"/></mask><path fill="#044E6D" d="M89.304 0H4.696C2.036 0 0 2.035 0 4.696v72.07c0 .94.627 1.567 1.57 1.567H32.9v12.53H25.07V94h50.126c1.882 0 3.137-1.255 3.137-3.137v-12.53H92.43c.943 0 1.57-.626 1.57-1.568V4.695C94 2.036 91.965 0 89.304 0zM3.137 4.696c0-.932.627-1.56 1.56-1.56h84.607c.932 0 1.56.628 1.56 1.56v56.402h-4.697V9.402c0-.942-.627-1.57-1.57-1.57H9.403c-.942 0-1.57.628-1.57 1.57v51.696H3.138V4.696zm47 48.57h25.06v-9.403h-25.06v9.402zm0 28.205h25.06V56.403h-25.06v25.07zm25.06-40.735h-25.06c-1.882 0-3.137 1.254-3.137 3.128v17.235H10.97V10.97h72.06V61.1h-4.697V43.863c0-1.874-1.255-3.128-3.137-3.128zm-72.06 34.46H47v-10.96H3.137v10.96zM36.03 90.864H47v-12.53H36.03v12.53zm14.107 0h25.06v-6.265h-25.06v6.265zm28.196-15.667h12.53v-10.96h-12.53v10.96z" mask="url(#b)"/></g><g transform="translate(0 26)"><mask id="d" fill="#fff"><use xlink:href="#c"/></mask><circle cx="35.5" cy="30.5" r="31.5" fill="#FFF" mask="url(#d)"/><path fill="#044E6D" d="M60.99 42.675c-1.447 3.404-3.52 6.463-6.162 9.09-2.64 2.627-5.714 4.69-9.138 6.13-3.543 1.49-7.308 2.246-11.19 2.246-3.883 0-7.648-.755-11.19-2.245-3.424-1.44-6.5-3.503-9.14-6.13-2.64-2.627-4.714-5.686-6.162-9.09-1.5-3.524-2.258-7.268-2.258-11.13 0-3.862.76-7.606 2.258-11.13 1.448-3.404 3.52-6.463 6.162-9.09 2.64-2.627 5.716-4.69 9.14-6.13C26.85 3.705 30.616 2.95 34.5 2.95c3.882 0 7.647.755 11.19 2.245 3.424 1.44 6.498 3.503 9.138 6.13 2.64 2.627 4.715 5.686 6.162 9.09 1.5 3.524 2.26 7.268 2.26 11.13 0 3.862-.76 7.606-2.26 11.13zm6.572-12.56h-1.47C65.34 13.406 51.485.09 34.5.09S3.66 13.406 2.907 30.116h-1.47c-.794 0-1.437.64-1.437 1.43 0 .79.643 1.428 1.437 1.428h1.47C3.66 49.684 17.515 63 34.5 63s30.84-13.316 31.592-30.026h1.47c.794 0 1.438-.64 1.438-1.43 0-.79-.644-1.428-1.438-1.428z" mask="url(#d)"/></g><path fill="#04A1BC" d="M26.35 36.8c2.904-1.23 5.992-1.852 9.176-1.852.814 0 1.474-.66 1.474-1.475C37 32.66 36.34 32 35.526 32 20.875 32 9 43.876 9 58.527 9 59.34 9.66 60 10.475 60s1.474-.66 1.474-1.473c0-3.186.622-6.273 1.852-9.177 1.187-2.808 2.887-5.33 5.053-7.496 2.168-2.167 4.69-3.868 7.496-5.055M29.715 66.115l9.19-16.3 9.192 16.3H29.715zm-8.688 0l5.545-9.366 2.635 4.45-2.77 4.915h-5.41zm9.8-7.786l-4.255-7.187L16 69h37L38.905 44l-8.08 14.33z"/><g fill="#04A1BC"><path d="M115 66h6v-3h-6M115 105h6v-3h-6"/></g><g><g transform="translate(73)"><mask id="f" fill="#fff"><use xlink:href="#e"/></mask><ellipse cx="42.592" cy="24.704" fill="#FFF" mask="url(#f)" transform="rotate(42 42.592 24.704)" rx="6" ry="30.5"/><path fill="#04A1BC" d="M58.673 11.88c-3.47 5.035-8.59 11.027-14.416 16.873-2.446 2.454-4.817 4.687-7.07 6.687l-6.478-6.5c2.053-2.334 4.294-4.728 6.658-7.1 5.825-5.846 11.796-10.984 16.812-14.468 6.177-4.29 8.308-4.295 8.718-4.24.056.41.05 2.55-4.225 8.75zM19.155 45.407c.75-2.012 2.364-4.732 4.615-7.856l4.828 4.846c-3.396 2.453-6.18 4.053-8.074 4.723-.032-.054-.5-1.006-1.37-1.714zM16.68 56.143c-.083.088-.838.886-1.822 1.59-3.575 2.562-7.95 2.86-11.13.886 1.488-2.05 2.595-4.358 3.23-6.76l.02-.082c.005-.024.54-2.474 2.85-4.13 1.487-1.065 3.26-1.494 4.862-1.176 1.322.262 2.433 1.02 3.13 2.132 1.365 2.183.885 5.354-1.14 7.54zm14.412-15.62l-5.453-5.47c.94-1.218 1.96-2.48 3.047-3.77l6.163 6.186c-1.304 1.104-2.56 2.124-3.758 3.054zm34.01-39.6c-1.894-1.9-5.692-.817-11.952 3.41-5.318 3.593-11.696 9.033-17.96 15.32-9.288 9.32-16.35 18.47-18.7 24.12-.387-.14-.79-.253-1.203-.335-2.432-.483-5.074.135-7.25 1.693-3.12 2.237-3.946 5.43-4.066 5.97-.656 2.46-1.9 4.81-3.598 6.794-.546.638-.484 1.598.14 2.16C2.696 62.015 5.487 63 8.39 63c2.797 0 5.7-.915 8.26-2.75 1.2-.86 2.108-1.81 2.284-1.998 2.175-2.346 3.098-5.42 2.64-8.23 5.524-1.988 15.153-9.34 24.862-19.082C52.7 24.653 58.122 18.252 61.7 12.915 65.915 6.633 66.995 2.822 65.1.922z" mask="url(#f)"/></g><path fill="#04A1BC" d="M88.2 52.2c-.745-.43-1.683-.145-2.094.638-.04.08-.092.153-.15.22-.115.126-.494.51-.888.805-.597.448-1.242.768-1.916.953-.824.227-1.317 1.11-1.1 1.975.18.728.805 1.21 1.49 1.21.13 0 .26-.017.39-.053 1.04-.285 2.025-.773 2.93-1.45.58-.435 1.35-1.23 1.355-1.237.23-.26.43-.55.592-.862.41-.783.137-1.766-.61-2.197"/></g><g><path fill="#04A1BC" d="M163.294 48.515l1.992-3.398 1.146 1.956-.804 1.442h-2.334zm13.517 0h-8.384l4.193-7.504 4.19 7.505zM171.573 51H181l-8.38-15-4.804 8.597-2.53-4.31L159 51h12.572zM176.75 77h-12.5c-.69 0-1.25.447-1.25 1 0 .553.56 1 1.25 1h12.5c.692 0 1.25-.447 1.25-1 0-.553-.558-1-1.25-1"/><g transform="translate(147 30)"><mask id="h" fill="#fff"><use xlink:href="#g"/></mask><path fill="#04A1BC" d="M11.113 44.25H35.81c.68 0 1.234-.55 1.234-1.23 0-.68-.553-1.23-1.235-1.23H11.112c-.682 0-1.235.55-1.235 1.23 0 .68.553 1.23 1.235 1.23" mask="url(#h)"/><path fill="#044E6D" d="M2.47 25.813h41.983V2.457H2.47v23.354zM45.686 0H1.234C.552 0 0 .55 0 1.23v25.81c0 .68.552 1.23 1.234 1.23h44.453c.682 0 1.235-.55 1.235-1.23V1.23c0-.68-.553-1.23-1.235-1.23zM2.47 56.54h41.983V33.188H2.47V56.54zm43.217-25.81H1.234C.552 30.73 0 31.28 0 31.957V57.77C0 58.45.552 59 1.234 59h44.453c.682 0 1.235-.55 1.235-1.23V31.958c0-.68-.553-1.23-1.235-1.23z" mask="url(#h)"/></g></g></g></svg>