<svg xmlns="http://www.w3.org/2000/svg" width="316" height="63" viewBox="0 0 316 63" xmlns:xlink="http://www.w3.org/1999/xlink"><defs><path id="a" d="M16.646 12.05V.25H.02v11.8h16.626z"/><path id="c" d="M0 62.29h315.646V0H0z"/></defs><g fill="none" fill-rule="evenodd"><path fill="#FFFFFF" d="M269.853 57.098c0-.86.597-1.505 1.433-1.505.837 0 1.41.62 1.41 1.505 0 .86-.573 1.505-1.458 1.505-.812 0-1.385-.646-1.385-1.505zM283.54 57.934c-.55.263-1.768.67-3.32.67-3.487 0-5.756-2.366-5.756-5.9 0-3.56 2.436-6.164 6.21-6.164 1.242 0 2.34.31 2.914.622l-.478 1.6c-.5-.264-1.29-.55-2.435-.55-2.653 0-4.085 1.983-4.085 4.37 0 2.677 1.72 4.325 4.012 4.325 1.195 0 1.983-.286 2.58-.55l.358 1.577zM287.315 52.583c0 2.532 1.434 4.443 3.487 4.443 2.007 0 3.512-1.887 3.512-4.49 0-1.96-.98-4.42-3.464-4.42-2.46 0-3.535 2.293-3.535 4.467m9.148-.12c0 4.276-2.985 6.14-5.756 6.14-3.105 0-5.54-2.293-5.54-5.948 0-3.845 2.554-6.115 5.73-6.115 3.32 0 5.566 2.412 5.566 5.924"/><g transform="translate(299 46.29)"><mask id="b" fill="#fff"><use xlink:href="#a"/></mask><path fill="#FFFFFF" d="M.117 3.62C.117 2.4.07 1.444.02.49h1.84l.096 1.887h.072C2.673 1.277 3.748.25 5.682.25c1.553 0 2.748.956 3.248 2.318h.048c.36-.67.836-1.147 1.315-1.505.692-.525 1.432-.812 2.53-.812 1.554 0 3.823 1.004 3.823 5.016v6.785h-2.054V5.53c0-2.246-.836-3.56-2.508-3.56-1.218 0-2.125.884-2.508 1.887-.096.31-.167.67-.167 1.052v7.14H7.353V5.125c0-1.84-.812-3.153-2.412-3.153-1.29 0-2.27 1.05-2.603 2.102-.12.287-.168.67-.168 1.027v6.95H.117V3.62z" mask="url(#b)"/></g><mask id="d" fill="#fff"><use xlink:href="#c"/></mask><path fill="#FFFFFF" d="M116.978 58.446h2.657v-2.802h-2.657M121.974 58.445h2.657V46.697h-2.656M135.913 46.698h-9.797v2.656h3.57v9.092h2.657v-9.092h3.57M82.053 43.17s-9.444-.663-17.504 7.705l-1.693-2.533-2.68.656 4.28 6.48c.056-.084.114-.172.17-.262C71.282 44.733 82.052 43.17 82.052 43.17" mask="url(#d)"/><path fill="#FFFFFF" d="M66.37 54.105c-.447.56-.89 1.145-1.314 1.78l-.22.337 1.314 2.224h2.914l-2.694-4.34zm-6.42 4.342h2.916l1.254-2.156-1.487-2.254-2.683 4.41zM86.477 49.326l-.08 2.095s-1.613-.147-2.388-.147c-1.96 0-2.327.677-2.327 2.507 0 2.05.39 2.69 2.347 2.69.772 0 2.366-.146 2.366-.146l.08 1.957s-2.18.386-3.325.386c-3.035 0-4.237-1.445-4.237-4.886 0-3.238 1.263-4.703 4.302-4.703 1.18 0 3.262.25 3.262.25M95.343 58.446h2.732V49.04h-2.732v9.406zm0-10.41h2.732V45.64h-2.732v2.396zM103.126 58.446h-2.733v-7.063h-1.1v-2.086h1.1v-.403c0-2.635.754-3.476 2.977-3.476.67 0 2.325.237 2.325.237l-.043 1.995s-.896-.037-1.547-.037c-.776 0-.98.366-.98 1.3v.384h2.14l.896 2.086h-3.034v7.063zM109.693 49.298l2.333 4.815 1.847-4.815h2.973l-5.17 12.99h-2.955l1.908-4.737-3.95-8.252M59.257 48.2v-2.197h-8.972v12.442h8.972V56.25H53.1v-2.957h6.157v-2.197H53.1V48.2M75.39 54.262c-.15-.023-.313-.044-.488-.062-.175-.017-.33-.027-.468-.027-.613 0-1.095.105-1.452.31-.356.207-.534.54-.534 1 0 .307.07.542.206.707.136.166.302.286.496.363.194.077.4.123.62.142.218.017.408.026.57.026.188 0 .376-.014.562-.044.188-.03.35-.056.488-.08v-2.334zm0-1.823c0-.282-.05-.513-.15-.69-.1-.177-.238-.314-.413-.416-.174-.1-.39-.168-.646-.202-.256-.036-.54-.054-.85-.054-.676 0-1.394.123-2.156.37-.175-.305-.306-.593-.394-.865-.088-.27-.13-.595-.13-.972.55-.176 1.1-.306 1.648-.39.55-.082 1.062-.123 1.536-.123 1.3 0 2.313.295 3.045.885.73.59 1.095 1.534 1.095 2.83v5.306c-.437.13-.97.254-1.592.372-.625.118-1.33.176-2.118.176-.637 0-1.22-.053-1.75-.158-.532-.106-.988-.283-1.37-.53-.38-.248-.673-.567-.88-.956-.206-.39-.308-.866-.308-1.433 0-.566.128-1.042.384-1.426.256-.382.587-.69.994-.92.405-.23.858-.394 1.357-.494.5-.1 1-.15 1.5-.15.362 0 .762.016 1.2.053v-.214zM88.677 51.387H87.46l-.025-.502 3.08-5.244h.785v3.66h2.268c.036.193.06.367.074.522.012.155.02.315.02.483 0 .18-.008.354-.02.522-.013.167-.038.355-.074.56H91.3v3.184c0 .4.03.722.094.967.062.246.153.44.27.58.12.142.266.24.442.29.174.052.38.078.618.078.186 0 .37-.017.553-.048.18-.032.34-.06.478-.087.086.244.15.5.187.764.037.264.056.5.056.705 0 .14-.003.26-.01.356-.006.098-.015.19-.028.28-.575.14-1.168.213-1.78.213-1.137 0-2.004-.274-2.603-.823-.6-.547-.9-1.44-.9-2.677v-3.783zM2.454 48.75c.52 0 1.018-.427 1.11-.95.04-.22-.012-.427-.142-.582-.14-.167-.364-.264-.614-.264h-.99L1.5 48.75h.954zM.592 51.193c-.066 0-.125-.026-.166-.073-.04-.05-.058-.115-.047-.18l.793-4.5c.02-.122.135-.217.258-.217h1.503c.436 0 .82.17 1.078.48.26.31.362.717.286 1.148-.156.892-1.005 1.617-1.89 1.617h-1.03l-.267 1.51c-.022.12-.137.216-.26.216H.593z" mask="url(#d)"/><path fill="#FFFFFF" d="M1.908 47.063h.9c.218 0 .41.08.53.224.112.133.153.303.12.495-.083.468-.544.86-1.004.86H1.63l.278-1.58zm1.025-.948H1.43c-.175 0-.332.13-.364.305l-.792 4.5c-.017.097.008.195.07.268.06.072.15.114.248.114H.85c.172 0 .334-.136.364-.306l.25-1.42h.94c.937 0 1.832-.764 2-1.706.08-.462-.03-.902-.31-1.237-.28-.335-.693-.518-1.16-.518zm-1.56 2.742h1.08c.557 0 1.114-.453 1.216-1.038.096-.55-.305-.973-.862-.973h-1.08l-.355 2.01zm1.56-2.526c.836 0 1.402.68 1.258 1.503-.148.842-.955 1.528-1.785 1.528h-1.12L1 50.96c-.01.066-.082.127-.15.127H.592c-.074 0-.118-.062-.106-.13l.793-4.498c.01-.07.076-.13.15-.13h1.503zM7.727 46.845c-1.016 0-2.027.866-2.208 1.89-.088.496.024.96.317 1.308.286.34.71.53 1.195.53 1.037 0 2.027-.84 2.21-1.875.088-.5-.027-.968-.323-1.322-.288-.343-.71-.53-1.193-.53m-.778 4.417c-.685 0-1.28-.263-1.68-.736-.405-.485-.56-1.133-.438-1.83.25-1.425 1.56-2.54 2.98-2.54.68 0 1.273.26 1.673.737.41.488.568 1.142.444 1.84-.25 1.42-1.56 2.53-2.98 2.53" mask="url(#d)"/><path fill="#FFFFFF" d="M7.032 50.465c-.452 0-.848-.174-1.113-.49-.273-.323-.376-.758-.295-1.22.172-.978 1.134-1.802 2.102-1.802.45 0 .844.175 1.11.492.275.33.382.766.3 1.234-.17.968-1.135 1.785-2.105 1.785m.78-4.417c-1.47 0-2.826 1.155-3.087 2.63-.127.728.037 1.41.465 1.917.42.5 1.043.775 1.76.775 1.47 0 2.827-1.15 3.085-2.616.13-.73-.037-1.416-.468-1.93-.42-.5-1.044-.776-1.756-.776m-.778 4.63c1.08 0 2.126-.882 2.316-1.962.19-1.08-.54-1.98-1.62-1.98-1.082 0-2.124.9-2.315 1.98-.19 1.08.538 1.963 1.62 1.963m.778-4.417c1.358 0 2.253 1.094 2.014 2.453-.24 1.358-1.52 2.438-2.875 2.438-1.362 0-2.25-1.08-2.012-2.438.24-1.36 1.513-2.453 2.873-2.453M14.43 51.262c-.09 0-.176-.063-.203-.15l-.49-3.402-1.676 3.418c-.055.086-.143.134-.224.134h-.11c-.11 0-.203-.084-.212-.193l-.478-4.566c-.008-.073.013-.144.06-.197.05-.054.12-.084.197-.084h.286c.105 0 .2.087.21.19l.296 3.186 1.624-3.31c.04-.082.13-.134.226-.134h.12c.108 0 .197.07.21.167l.473 3.28 1.412-3.22c.037-.08.132-.16.238-.16h.286c.08 0 .15.034.188.094.04.06.04.14.003.22l-2.09 4.568c-.04.092-.137.157-.237.157h-.11z" mask="url(#d)"/><path fill="#FFFFFF" d="M14.06 46.048h-.124c-.137 0-.263.076-.32.194l-1.457 2.967-.26-2.805c-.016-.162-.157-.29-.32-.29h-.285c-.11 0-.21.043-.28.12-.066.076-.097.176-.086.283l.478 4.565c.013.158.154.287.32.287h.108c.117 0 .236-.065.306-.166l1.54-3.134.436 3.042c.047.165.173.258.314.258h.11c.14 0 .278-.093.335-.224l2.09-4.563c.05-.113.047-.23-.012-.325-.058-.09-.16-.143-.28-.143h-.284c-.133 0-.273.092-.333.22l-1.265 2.88-.42-2.908c-.02-.15-.156-.26-.313-.26m0 .216c.052 0 .095.033.1.074l.52 3.607h.026l1.546-3.518c.023-.05.084-.096.14-.096h.283c.095 0 .14.07.094.163l-2.09 4.568c-.023.054-.084.094-.14.094h-.108c-.046 0-.09-.033-.1-.073l-.53-3.677h-.033l-1.804 3.678c-.03.04-.082.074-.13.074h-.11c-.052 0-.1-.04-.103-.093l-.48-4.567c-.01-.094.057-.163.152-.163h.284c.054 0 .1.047.105.096l.326 3.518h.026l1.77-3.607c.022-.04.07-.074.13-.074h.123M17.37 51.193c-.066 0-.125-.025-.165-.073-.042-.05-.06-.115-.046-.18l.793-4.5c.02-.122.134-.218.256-.218h2.677c.067 0 .126.027.166.076.04.048.06.114.046.18l-.036.196c-.02.123-.134.22-.257.22h-2.194l-.253 1.442h1.822c.063 0 .124.028.165.076.04.05.058.115.047.178l-.035.2c-.023.12-.136.216-.26.216h-1.86l-.266 1.517h2.155c.065 0 .123.026.165.075.04.05.058.115.047.182l-.035.196c-.022.122-.136.217-.26.217H17.37z" mask="url(#d)"/><path fill="#FFFFFF" d="M20.888 46.116H18.21c-.177 0-.333.13-.364.307l-.793 4.498c-.017.098.01.195.07.268.06.073.15.114.25.114h2.676c.175 0 .333-.13.363-.306l.035-.197c.017-.1-.008-.197-.07-.27-.06-.072-.15-.114-.25-.114h-2.026l.23-1.3h1.77c.177 0 .332-.135.363-.31l.035-.196c.016-.096-.01-.192-.072-.266-.06-.073-.15-.116-.246-.116h-1.695L18.704 47h2.104c.176 0 .332-.13.364-.306l.033-.198c.018-.097-.007-.193-.068-.267-.06-.073-.152-.114-.25-.114m0 .214c.075 0 .12.06.107.13l-.034.196c-.012.07-.078.13-.152.13h-2.284l-.293 1.657h1.952c.067 0 .118.062.106.13l-.034.196c-.013.075-.085.13-.152.13h-1.95l-.306 1.732h2.283c.073 0 .117.06.105.13l-.034.197c-.01.065-.077.127-.15.127H17.37c-.075 0-.12-.062-.108-.128l.794-4.5c.012-.07.077-.13.152-.13h2.678M23.88 48.67c.482 0 .962-.414 1.05-.903.037-.216-.016-.423-.15-.582-.133-.16-.336-.25-.556-.25h-1.226l-.307 1.734h1.19zm.572 2.523c-.117 0-.182-.073-.2-.135l-.563-1.726h-1.13l-.29 1.645c-.02.12-.138.216-.257.216h-.267c-.066 0-.124-.025-.165-.073-.04-.05-.057-.115-.045-.18l.793-4.5c.02-.122.134-.217.257-.217h1.76c.433 0 .81.166 1.06.466.25.294.347.688.273 1.105-.108.612-.57 1.152-1.22 1.43l.59 1.63c.03.072.018.158-.03.226-.05.072-.13.113-.22.113h-.346z" mask="url(#d)"/><path fill="#FFFFFF" d="M23.087 47.042h1.137c.19 0 .36.075.474.212.113.135.158.31.124.493-.077.44-.508.815-.943.815h-1.06l.267-1.52zm1.26-.926h-1.762c-.176 0-.332.13-.363.307l-.793 4.498c-.02.1.007.195.068.268.06.073.15.114.25.114h.264c.174 0 .333-.135.364-.306l.275-1.556h.96l.54 1.653c.03.1.136.21.303.21h.346c.122 0 .237-.06.307-.16.067-.098.083-.22.042-.33l-.557-1.53c.633-.304 1.082-.85 1.192-1.47.078-.448-.026-.873-.295-1.193-.274-.325-.68-.504-1.144-.504zm-1.784 2.66h1.316c.524 0 1.056-.434 1.155-.99.09-.518-.287-.96-.81-.96h-1.318l-.344 1.95zm1.783-2.446c.815 0 1.37.64 1.227 1.446-.11.627-.618 1.15-1.25 1.388l.625 1.726c.033.088-.034.197-.15.197h-.345c-.062 0-.092-.034-.1-.062l-.585-1.8H22.47l-.306 1.734c-.013.065-.083.127-.152.127h-.265c-.075 0-.12-.062-.107-.128l.793-4.5c.012-.068.078-.13.152-.13h1.76zM26.593 51.193c-.067 0-.125-.025-.165-.073-.042-.05-.06-.115-.046-.18l.793-4.5c.022-.122.135-.218.257-.218h2.678c.067 0 .126.027.166.076.04.048.058.114.046.18l-.035.196c-.02.123-.134.22-.257.22h-2.194l-.254 1.442h1.823c.064 0 .124.028.165.077.04.05.057.115.046.178l-.035.198c-.02.122-.134.218-.256.218h-1.86l-.268 1.517h2.156c.066 0 .125.026.166.076.04.048.057.114.046.18l-.035.196c-.022.122-.136.217-.26.217h-2.677z" mask="url(#d)"/><path fill="#FFFFFF" d="M30.11 46.116h-2.678c-.176 0-.333.13-.363.307l-.795 4.498c-.017.098.01.195.07.268.06.073.152.114.248.114h2.68c.176 0 .33-.13.362-.306l.035-.197c.017-.1-.008-.198-.07-.27-.06-.073-.15-.114-.248-.114h-2.028l.23-1.3h1.77c.176 0 .333-.135.364-.31l.035-.196c.016-.096-.01-.192-.07-.266-.063-.073-.153-.116-.248-.116H27.71L27.927 47h2.104c.177 0 .334-.13.365-.308l.033-.196c.018-.097-.007-.194-.068-.268-.06-.07-.152-.112-.25-.112m0 .214c.075 0 .12.06.106.13l-.034.196c-.012.07-.078.13-.152.13h-2.284l-.29 1.657h1.95c.066 0 .118.062.104.13l-.034.196c-.013.075-.084.13-.152.13h-1.95l-.306 1.732h2.284c.074 0 .118.06.107.13l-.036.197c-.013.065-.077.127-.15.127h-2.68c-.075 0-.118-.062-.108-.128l.795-4.5c.012-.07.078-.13.152-.13h2.68M32.459 50.51c1.06 0 1.966-.768 2.154-1.827.09-.508-.01-.965-.28-1.287-.27-.32-.696-.495-1.2-.495h-.93l-.637 3.61h.892zm-1.498.684c-.06 0-.12-.027-.16-.073-.04-.047-.058-.114-.046-.18l.793-4.5c.02-.12.133-.217.25-.217h1.522c.662 0 1.244.26 1.637.727.398.474.553 1.104.437 1.77-.24 1.364-1.547 2.474-2.913 2.474H30.96z" mask="url(#d)"/><path fill="#FFFFFF" d="M32.294 47.008h.84c.473 0 .87.162 1.117.457.25.298.342.723.257 1.2-.177 1.007-1.04 1.74-2.048 1.74h-.765l.6-3.397zm1.028-.893H31.8c-.17 0-.327.135-.357.307l-.793 4.5c-.017.097.008.195.07.27.06.07.148.11.242.11h1.52c1.417 0 2.77-1.15 3.02-2.563.123-.7-.04-1.36-.46-1.86-.414-.493-1.025-.765-1.72-.765zm-1.883 4.503h1.02c1.113 0 2.062-.796 2.26-1.916.196-1.115-.472-1.91-1.587-1.91h-1.02l-.674 3.826zm1.882-4.288c1.312 0 2.198 1.067 1.968 2.372-.232 1.32-1.495 2.385-2.807 2.385h-1.52c-.07 0-.113-.06-.102-.13l.795-4.498c.012-.068.077-.13.145-.13h1.522zM40.206 48.358c.44 0 .78-.3.86-.762.04-.217.007-.395-.092-.513-.096-.115-.26-.175-.475-.175H39.48l-.255 1.45h.98zm-.266 2.166c.436 0 .824-.334.903-.773.03-.176-.01-.337-.115-.464-.13-.157-.353-.245-.605-.245h-1.03l-.262 1.483h1.11zm-1.686.67c-.065 0-.125-.026-.165-.074-.043-.05-.06-.115-.048-.18l.794-4.5c.02-.12.134-.218.258-.218h1.487c.45 0 .825.152 1.057.428.208.248.288.587.224.95-.084.475-.414.843-.743 1.063.27.17.615.512.506 1.132-.145.823-.893 1.398-1.82 1.398h-1.55z" mask="url(#d)"/><path fill="#FFFFFF" d="M39.182 49.148h.94c.223 0 .414.076.523.207.085.104.117.233.092.377-.07.39-.412.684-.797.684h-.982l.224-1.267zm.39-2.134h.927c.126 0 .296.024.39.137.1.12.093.3.07.428-.072.407-.368.67-.754.67l-.85.002.217-1.236zm1.01-.898h-1.488c-.177 0-.333.132-.365.306l-.793 4.498c-.017.1.008.195.07.268.06.072.15.113.248.113l1.55.002c.978 0 1.77-.612 1.925-1.49.082-.47-.072-.875-.427-1.15.304-.24.585-.596.663-1.044.07-.396-.018-.764-.247-1.038-.253-.3-.657-.463-1.138-.463zm-1.88 4.516h1.238c.495 0 .922-.374 1.008-.862.086-.484-.296-.837-.825-.837H39l-.297 1.7v-.002zm.397-2.168h1.106c.523 0 .882-.372.966-.85.087-.488-.15-.816-.673-.816H39.39l-.293 1.666zm1.482-2.133c.83 0 1.3.538 1.173 1.252-.093.52-.506.904-.857 1.087.333.148.73.48.62 1.106-.135.76-.836 1.31-1.714 1.31h-1.55c-.073 0-.117-.06-.105-.127l.792-4.5c.012-.07.077-.13.152-.13h1.488zM43.792 51.193c-.066 0-.125-.025-.165-.073-.04-.05-.06-.115-.046-.18l.382-2.162-1.228-2.2c-.035-.083-.026-.17.02-.238.05-.073.13-.118.22-.118h.32c.09 0 .158.06.19.115l.968 1.766 1.605-1.784c.027-.032.1-.098.2-.098h.32c.087 0 .16.043.195.117.038.08.023.175-.038.254l-2.062 2.268-.356 2.114c-.022.12-.137.217-.258.217h-.266z" mask="url(#d)"/><path fill="#FFFFFF" d="M46.575 46.116h-.318c-.14 0-.24.09-.277.127l-1.508 1.675-.892-1.63c-.064-.11-.173-.172-.287-.172h-.32c-.125 0-.24.062-.31.165-.065.1-.076.225-.03.33l1.21 2.224-.37 2.087c-.016.098.01.195.07.268.06.073.152.114.25.114h.265c.172 0 .332-.134.364-.306l.37-2.108 2.015-2.216c.098-.122.118-.263.06-.38-.05-.11-.163-.176-.292-.176m0 .214c.107 0 .145.108.074.196L44.59 48.79l-.382 2.17c-.012.065-.084.127-.152.127h-.266c-.073 0-.117-.062-.106-.128l.382-2.164-1.238-2.27c-.037-.088.035-.196.144-.196h.32c.047 0 .08.034.098.06l1.037 1.897 1.707-1.896c.025-.026.07-.06.12-.06h.318M12.2 28.89c2.44 0 4.39-1.904 4.39-4.442 0-2.44-2.44-4.246-4.976-4.246h-5.32v8.687H12.2zm-.684-14.056c2.49 0 4.197-1.952 4.197-4.39 0-2.442-1.708-4.15-4.197-4.15h-5.22v8.54h5.22zM0 1.414C0 .927.39.487.927.487h11.175c5.807 0 10.296 3.904 10.296 9.028 0 3.758-3.074 6.686-5.368 7.76 2.586.83 6.345 3.464 6.345 7.954 0 5.464-4.685 9.417-10.64 9.417H.928c-.538 0-.927-.44-.927-.928V1.413zM27.47 16.054c0-.537.44-.927.927-.927H32.4c.487 0 .926.39.926.927v9.614c0 2.586 1.317 4.197 3.562 4.197 2.05 0 3.61-1.904 3.905-3.66v-10.15c0-.732.293-.928 1.073-.928h3.708c.49 0 .928.39.928.927V33.72c0 .487-.44.927-.928.927H43.77c-.488 0-.78-.342-.928-.732l-.585-1.61c-.88.78-2.685 2.83-6.54 2.83-6.05 0-8.247-4.637-8.247-9.613v-9.468zM52.355 16.054c0-.537.44-.927.927-.927h4.05c.488 0 .927.39.927.927V33.72c0 .487-.44.927-.927.927h-4.05c-.49 0-.928-.44-.928-.928V16.053zm-.44-11.224c0-1.853 1.464-3.367 3.32-3.367 1.902 0 3.415 1.514 3.415 3.367 0 1.855-1.513 3.368-3.416 3.368-1.855 0-3.318-1.513-3.318-3.368zM64.114 1.414c0-.487.44-.928.927-.928h4.1c.488 0 .928.44.928.928V33.72c0 .487-.44.926-.928.926h-4.1c-.487 0-.926-.44-.926-.927V1.413zM84.56 29.864c2.585 0 3.757-2 4.098-3.172v-5.66s-1.366-1.123-3.806-1.123c-2.733 0-4.733 2.243-4.733 4.976 0 2.734 1.853 4.978 4.44 4.978m-.44-15.226c1.952 0 3.465.538 4.343.88V1.413c0-.488.44-.927.927-.927h4.148c.488 0 .927.44.927.927v32.304c0 .49-.44.928-.927.928h-1.903c-.44 0-.78-.39-.927-.928l-.488-1.512s-2.294 2.93-6.393 2.93c-5.32 0-9.37-4.638-9.37-10.25 0-5.71 3.855-10.248 9.663-10.248" mask="url(#d)"/><path fill="#FFFFFF" d="M104.858.732c.05-.39.34-.732.878-.732h.78c.392 0 .684.195.83.487l10.736 23.033h.147L128.963.488c.147-.293.39-.487.83-.487h.78c.538 0 .83.34.88.732l5.758 32.791c.146.684-.245 1.123-.88 1.123h-4.44c-.44 0-.83-.39-.927-.73l-2.878-18.496h-.147l-8.54 19.177c-.098.294-.39.538-.83.538h-.878c-.44 0-.683-.244-.83-.538l-8.637-19.178h-.147l-2.83 18.495c-.05.34-.438.732-.88.732h-4.39c-.634 0-1.025-.44-.927-1.123L104.86.73zM138.72 16.395c-.293-.634.097-1.268.83-1.268h4.39c.44 0 .684.244.83.537l4.93 11.028h.05l4.878-11.027c.244-.49.586-.538 1.17-.538h3.905c.78 0 1.17.633.83 1.268L145.6 48.7c-.146.293-.44.586-.83.586h-4.196c-.732 0-1.17-.635-.83-1.318l6.93-14.69-7.954-16.883z" mask="url(#d)"/><path fill="#FFFFFF" d="M176.34 16.3c2.733 0 5.027-2.197 5.027-5.077 0-2.685-2.294-4.734-5.026-4.734h-5.66v9.81h5.66zM164.338 1.413c0-.487.39-.928.928-.928h11.467c6.002 0 10.93 4.88 10.93 10.786 0 6.05-4.928 10.98-10.882 10.98h-6.1v11.467c0 .487-.44.927-.927.927h-4.488c-.537 0-.928-.44-.928-.928V1.413zM190.393 16.054c0-.537.438-.927.927-.927h1.854c.44 0 .733.244.88.635l.682 1.903c.683-.976 2.49-3.026 5.513-3.026 2.294 0 4.343.73 3.757 1.95l-1.804 3.173c-.245.438-.733.635-1.123.438-.147-.046-.878-.29-1.415-.29-1.953 0-3.124 1.317-3.464 2v11.81c0 .683-.44.927-1.122.927h-3.758c-.49 0-.927-.44-.927-.928V16.053zM213.52 30.986c1.563 0 3.075-1.317 3.367-1.903V26.4s-1.316-.587-2.732-.587c-1.903 0-3.172 1.074-3.172 2.636 0 1.463 1.025 2.536 2.537 2.536m-.097-8.686c1.952 0 3.563.537 3.563.537.05-2.49-.733-3.368-2.537-3.368-1.807 0-4.345.39-5.466.732-.685.195-1.026-.244-1.124-.88l-.44-2.536c-.145-.733.246-1.074.685-1.22.39-.147 3.513-.928 6.637-.928 6.1 0 7.514 3.173 7.514 8.492v10.588c0 .49-.44.928-.927.928h-1.758c-.34 0-.585-.146-.83-.683l-.584-1.318c-1.123 1.026-2.928 2.49-5.954 2.49-3.905 0-6.59-2.54-6.59-6.686 0-3.466 2.832-6.15 7.81-6.15M236.746 14.64c3.025 0 5.368 1.22 7.223 3.464.34.44.243 1.024-.245 1.366l-2.245 2.148c-.44.39-.88.146-1.22-.146-.78-.88-2-1.562-3.368-1.562-2.634 0-4.782 2.244-4.782 4.977 0 2.782 2.1 4.978 4.734 4.978 2.098 0 3.025-1.026 3.904-1.855.342-.34.83-.44 1.22-.146l2.098 1.805c.488.39.683.877.34 1.365-1.657 2.587-4.243 4.1-7.708 4.1-5.515 0-10.346-4.392-10.346-10.248 0-5.76 4.93-10.248 10.394-10.248M249.676 20.25h-1.66c-.487 0-.877-.438-.877-.927v-3.27c0-.535.39-.926.877-.926h1.66V9.71c0-.487.438-.927.927-.927l4.002-.05c.487 0 .878.44.878.928v5.467h4.294c.536 0 .926.39.926.927v3.27c0 .488-.39.926-.926.926h-4.294v7.81c0 1.365.73 1.56 1.512 1.56.83 0 1.854-.342 2.39-.537.54-.195.928.05 1.074.537l.978 3.074c.194.488-.05.977-.538 1.17-.244.148-3.415 1.27-5.807 1.27-3.757 0-5.417-2.342-5.417-6.294v-8.59zM265.484 16.054c0-.537.44-.927.927-.927h4.052c.487 0 .927.39.927.927V33.72c0 .487-.44.927-.928.927h-4.05c-.49 0-.928-.44-.928-.928V16.053zm-.44-11.224c0-1.853 1.465-3.367 3.32-3.367 1.902 0 3.415 1.514 3.415 3.367 0 1.855-1.514 3.368-3.416 3.368-1.855 0-3.32-1.513-3.32-3.368zM286.125 14.64c3.025 0 5.368 1.22 7.222 3.464.34.44.244 1.024-.243 1.366l-2.246 2.148c-.438.39-.878.146-1.22-.146-.78-.88-2-1.562-3.367-1.562-2.634 0-4.78 2.244-4.78 4.977 0 2.782 2.098 4.978 4.733 4.978 2.097 0 3.025-1.026 3.904-1.855.34-.34.83-.44 1.22-.146l2.097 1.805c.49.39.684.877.342 1.365-1.66 2.587-4.245 4.1-7.71 4.1-5.514 0-10.346-4.392-10.346-10.248 0-5.76 4.93-10.248 10.395-10.248M309.937 22.446c-.147-1.805-1.71-3.318-3.564-3.318-1.952 0-3.56 1.464-3.805 3.318h7.37zm-3.416-7.808c5.026 0 9.127 3.807 9.127 9.078 0 .34-.05.975-.1 1.317-.048.488-.487.83-.925.83h-12.494c.148 2 1.856 4.245 4.685 4.245 1.514 0 2.928-.586 3.808-1.22.488-.293.926-.39 1.27 0l2 2.293c.34.343.44.88-.05 1.27-1.61 1.513-4.1 2.684-7.27 2.684-5.856 0-10.005-4.635-10.005-10.248 0-5.514 4.15-10.248 9.956-10.248z" mask="url(#d)"/></g></svg>