<svg xmlns="http://www.w3.org/2000/svg" width="298" height="53" viewBox="0 0 298 53" xmlns:xlink="http://www.w3.org/1999/xlink"><defs><path id="a" d="M0 50.877V.162h50.872v50.715z"/></defs><g fill="none" fill-rule="evenodd"><g><mask id="b" fill="#fff"><use xlink:href="#a"/></mask><path fill="#51B6C8" d="M25.436.16C11.388.16 0 11.514 0 25.52c0 14.004 11.388 25.357 25.436 25.357S50.872 39.524 50.872 25.52C50.872 11.512 39.484.16 25.436.16m0 3.29c12.206 0 22.137 9.9 22.137 22.07s-9.93 22.07-22.137 22.07C13.23 47.59 3.3 37.69 3.3 25.52S13.23 3.45 25.435 3.45" mask="url(#b)"/></g><path fill="#044E6D" d="M62.858 30.514h4.045c.16 0 .266-.11.266-.27v-3.46c0-.163-.108-.27-.294-.27h-4.018v4zm3.964-7.298c.16 0 .24-.108.24-.244v-3.188c0-.163-.107-.298-.293-.298h-3.912v3.73h3.964zM59 16h9.1c1.543 0 2.793 1.27 2.793 2.812v4.134c0 .702-.53 1.486-1.383 1.784.692.108 1.49.784 1.49 1.757v4.703c0 1.54-1.25 2.81-2.794 2.81H59V16zM87 16v15.028C87 32.676 85.713 34 84.11 34h-6.22C76.286 34 75 32.676 75 31.028V16h3.807v14.162c0 .163.106.272.263.272h3.86c.157 0 .263-.11.263-.272V16H87zM92 34h4V16h-4M101 16h3.89v14.434H112V34h-11M120.832 19.57v10.863h4.07c.16 0 .266-.11.266-.27V19.838c0-.164-.106-.27-.265-.27h-4.07zm5.26-3.57c1.614 0 2.908 1.325 2.908 2.973v12.054c0 1.65-1.294 2.973-2.907 2.973H117V16h9.093z"/><path fill="#04A1BC" d="M137.648 24.54V34H134V16h3.648L142 26.783 146.353 16H150v18h-3.648v-9.46l-2.762 6.676h-3.18M162 23.54l2.96-7.54H169l-5.072 11.946V34h-3.856v-6.054L155 16h4.042"/><path fill="#044E6D" d="M176.726 19.57v4.268h4.316c.155 0 .257-.11.257-.27v-3.73c0-.162-.103-.27-.258-.27h-4.316zm5.448-3.57c1.567 0 2.826 1.325 2.826 2.973v5.46c0 1.65-1.26 2.973-2.826 2.973h-5.448V34H173V16h9.174zM193.91 19.57v4.24h4.884c.162 0 .27-.107.27-.27v-3.7c0-.164-.108-.27-.27-.27h-4.883zm2.672 7.808h-2.67V34H190V16h9.98c1.646 0 2.968 1.325 2.968 2.973v5.433c0 1.35-.89 2.486-2.13 2.864L204 34h-4.29l-3.128-6.622zM213.944 26.973h3.087l-1.542-6-1.544 6zM223 34h-3.808l-1.08-3.566h-5.275L211.807 34H208l5.61-18h3.756L223 34zM239 27.92v3.108c0 1.648-1.31 2.972-2.94 2.972h-6.12c-1.63 0-2.94-1.324-2.94-2.972V18.973c0-1.65 1.31-2.973 2.94-2.973h6.12c1.63 0 2.94 1.324 2.94 2.973v2.703l-3.796.65v-2.488c0-.163-.106-.27-.267-.27h-3.794c-.16 0-.268.107-.268.27v10.324c0 .163.107.272.268.272h3.794c.16 0 .267-.11.267-.272V27.27l3.796.65zM243 16h13v3.57h-4.573V34h-3.855V19.57H243M261 34h4V16h-4M282 27.92v3.108c0 1.648-1.31 2.972-2.94 2.972h-6.12c-1.63 0-2.94-1.324-2.94-2.972V18.973c0-1.65 1.31-2.973 2.94-2.973h6.12c1.63 0 2.94 1.324 2.94 2.973v2.703l-3.796.65v-2.488c0-.163-.106-.27-.267-.27h-3.794c-.16 0-.268.107-.268.27v10.324c0 .163.107.272.268.272h3.794c.16 0 .267-.11.267-.272V27.27l3.796.65zM287 16h10.973v3.57h-7.13V23h6.574v3.567h-6.574v3.867H298V34h-11"/><path fill="#04A1BC" d="M22 31h8v-2h-8"/><path fill="#044E6D" d="M12.91 33.2h2.75c.24 0 .432-.18.432-.43v-2.08c0-.248-.19-.43-.43-.43h-2.753v2.94zm2.72-4.724c.223-.016.382-.197.382-.43V26.23c0-.25-.192-.43-.43-.43H12.91v2.676h2.72zM11 24h5.235c.938 0 1.686.777 1.686 1.735v2.36c0 .497-.35 1.043-.843 1.206.446.085.923.548.923 1.19v2.777c0 .958-.747 1.733-1.687 1.733H11V24z"/><path fill="#04A1BC" d="M22.973 17.426V24H21V13h1.973L26 19.74 29.03 13H31v11h-1.972v-6.574l-2.16 4.69h-1.735"/><path fill="#044E6D" d="M38.13 26.246c0-.25-.188-.43-.422-.43H34.87v2.647h2.838c.234 0 .42-.182.42-.43v-1.787zM33 24h5.285c.95 0 1.715.808 1.715 1.817v2.646c0 1.008-.764 1.817-1.715 1.817H34.87V35H33V24z"/><path fill="#04A1BC" d="M25 34h2v-8h-2M287 51h2v-2h-2M290 51h2v-7h-2M298 44h-6v1.584h2.185V51h1.627v-5.416H298M266 41.007s-5.612-.377-10.403 4.377l-1.006-1.438-1.59.372L255.542 48c.034-.048.07-.1.102-.15C259.6 41.896 266 41.007 266 41.007"/><path fill="#044E6D" d="M256.522 48.046c-.246.38-.487.78-.72 1.212l-.122.23.72 1.512h1.6l-1.478-2.954zM253 51h1.6l.688-1.465L254.47 48 253 51zM269 45.156l-.054 1.31s-1.066-.092-1.578-.092c-1.295 0-1.537.423-1.537 1.57 0 1.282.257 1.682 1.552 1.682.51 0 1.564-.09 1.564-.09L269 50.76s-1.442.24-2.198.24c-2.008 0-2.802-.905-2.802-3.057 0-2.027.834-2.943 2.845-2.943.778 0 2.155.156 2.155.156M274 51h2v-5.876h-2V51zm0-6.505h2V43h-2v1.495zM278.233 51h-1.593v-4.337H276v-1.28h.64v-.248c0-1.618.44-2.135 1.734-2.135.392 0 1.355.145 1.355.145l-.026 1.224s-.522-.022-.902-.022c-.45 0-.57.224-.57.8v.234h1.246l.522 1.28h-1.767V51zM282.78 45l1.375 2.964 1.09-2.964H287l-3.05 8h-1.745l1.125-2.918L281 45M252 44.237V43h-5v7h5v-1.236h-3.432V47.1H252v-1.234h-3.432v-1.63M262.388 48.24c-.094-.017-.195-.028-.304-.04-.11-.01-.206-.017-.292-.017-.382 0-.682.066-.905.195-.222.13-.333.34-.333.626 0 .193.043.34.128.444.085.103.19.178.31.228.12.048.25.076.386.088.136.012.255.016.356.016.117 0 .233-.01.35-.028.117-.018.218-.034.304-.05V48.24zm0-1.144c0-.177-.03-.32-.094-.432-.062-.11-.147-.197-.257-.26-.108-.063-.243-.105-.403-.128-.16-.022-.337-.033-.53-.033-.422 0-.87.078-1.345.233-.11-.193-.19-.373-.245-.544-.056-.17-.083-.373-.083-.61.344-.11.687-.19 1.028-.243.343-.053.663-.08.958-.08.81 0 1.443.186 1.898.555.455.37.684.962.684 1.774v3.327c-.273.08-.604.16-.994.232-.388.074-.83.11-1.32.11-.397 0-.76-.034-1.09-.1-.332-.066-.616-.176-.854-.333-.237-.155-.42-.353-.548-.597-.13-.245-.194-.545-.194-.9 0-.353.08-.652.24-.893.16-.24.366-.432.62-.576.25-.142.534-.245.846-.31.31-.062.623-.094.934-.094.225 0 .475.01.748.033v-.134z"/><path fill="#044E6D" d="M269.758 46.53h-.742l-.016-.31 1.88-3.22h.476v2.247h1.382c.022.12.037.225.045.32.008.096.01.194.01.296 0 .11-.002.22-.01.32-.008.104-.023.22-.045.346h-1.382v1.953c0 .245.018.443.057.593.038.15.093.27.166.357.072.086.16.146.267.18.107.03.233.046.377.046.113 0 .226-.01.336-.032.11-.017.208-.036.292-.053.053.15.09.307.114.47.022.16.034.306.034.433 0 .086 0 .16-.006.22-.003.058-.01.115-.016.17-.35.088-.713.132-1.085.132-.693 0-1.222-.168-1.587-.505-.366-.336-.548-.883-.548-1.644v-2.32z"/><path fill="#04A1BC" d="M216.584 44.494c.072.022.167.03.282.03.417 0 .707-.23.77-.63.064-.4-.16-.59-.536-.59-.152 0-.27.014-.332.032l-.184 1.158zm-.117-1.436c.172-.03.395-.058.672-.058.34 0 .577.09.71.25.12.14.178.356.136.62-.043.27-.147.482-.307.637-.222.216-.534.328-.87.328-.104 0-.2-.005-.275-.028l-.19 1.193H216l.467-2.942zM219.472 44.515c-.122.624.14 1.18.794 1.18.655 0 1.13-.547 1.26-1.205.112-.582-.102-1.184-.79-1.184-.687 0-1.14.577-1.264 1.21m2.493-.043c-.193.993-.965 1.527-1.782 1.527-.85 0-1.32-.597-1.148-1.476.178-.92.92-1.524 1.774-1.524.877 0 1.323.607 1.155 1.473M222.254 46L222 43h.447l.097 1.518c.026.374.04.75.043 1.037h.01c.11-.297.28-.655.468-1.042l.73-1.513h.44l.106 1.522c.025.357.043.713.03 1.03h.01c.133-.332.29-.664.463-1.04l.725-1.512H226l-1.506 3h-.44l-.114-1.562c-.03-.383-.04-.678-.026-.98h-.01c-.11.3-.244.593-.44.98L222.696 46h-.442zM227.672 44.594h-1.078l-.177 1.082h1.207l-.054.324H226l.492-3H228l-.054.325H226.8l-.153.95h1.078M229.594 44.42h.352c.368 0 .636-.225.69-.566.06-.385-.16-.553-.525-.553-.165 0-.282.015-.345.032l-.17 1.088zm-.13-1.357c.18-.035.438-.063.67-.063.37 0 .598.08.734.244.11.132.156.335.12.57-.063.388-.325.65-.618.755l-.002.013c.19.08.278.29.292.6.02.415.04.702.077.817h-.356c-.03-.088-.05-.34-.06-.71-.015-.413-.137-.566-.448-.58h-.324l-.204 1.29H229l.465-2.937zM232.673 44.594h-1.08l-.176 1.082h1.207l-.053.324H231l.49-3H233l-.053.325h-1.145l-.156.95h1.08M234.475 45.677c.103.013.257.017.42.017.9 0 1.472-.456 1.627-1.252.14-.697-.207-1.14-1.094-1.14-.217 0-.384.018-.5.04l-.453 2.335zm.09-2.61c.26-.04.57-.067.902-.067.602 0 1.005.132 1.243.368.247.24.35.582.257 1.06-.094.48-.34.876-.69 1.147-.362.277-.892.425-1.522.425-.304 0-.547-.013-.755-.035l.564-2.9zM238.63 44.275h.32c.37 0 .624-.214.67-.5.057-.34-.16-.48-.517-.48-.162 0-.258.013-.317.026l-.156.955zm-.232 1.41c.073.013.168.017.295.017.365 0 .726-.145.796-.573.064-.4-.23-.57-.615-.57h-.29l-.187 1.126zm.077-2.618c.16-.04.413-.067.656-.067.354 0 .57.067.712.215.124.114.185.29.147.522-.05.29-.268.538-.57.65l-.002.01c.25.067.515.3.443.737-.04.253-.165.45-.33.59-.218.19-.542.276-.987.276-.244 0-.428-.018-.543-.035l.475-2.898zM241.36 46l.192-1.273L241 43h.38l.235.828c.06.227.114.41.16.62h.01c.097-.197.217-.393.35-.62l.493-.828H243l-1.114 1.723-.19 1.277h-.335z"/></g></svg>