<svg xmlns="http://www.w3.org/2000/svg" width="319" height="49" viewBox="0 0 319 49" xmlns:xlink="http://www.w3.org/1999/xlink"><defs><path id="a" d="M0 49h320V0H0z"/></defs><g fill="none" fill-rule="evenodd"><path fill="#F0F0F1" d="M23.5 0C36.478 0 47 10.52 47 23.5S36.478 47 23.5 47C10.52 47 0 36.48 0 23.5S10.52 0 23.5 0zm0 3.048c-11.277 0-20.452 9.174-20.452 20.452 0 11.278 9.175 20.452 20.452 20.452 11.277 0 20.452-9.174 20.452-20.452 0-11.278-9.175-20.452-20.452-20.452z"/><path fill="#044E6D" d="M58.537 26.9h3.707c.146 0 .244-.095.244-.24v-3.074c0-.144-.098-.24-.268-.24h-3.683V26.9zm3.634-6.486c.147 0 .22-.096.22-.216v-2.834c0-.145-.097-.265-.268-.265h-3.585v3.314h3.634zM55 14h8.342c1.414 0 2.56 1.13 2.56 2.498v3.676c0 .625-.487 1.32-1.268 1.586.635.096 1.366.696 1.366 1.56v4.182C66 28.872 64.854 30 63.44 30H55V14zM81 14v13.357C81 28.823 79.82 30 78.352 30h-5.705C71.18 30 70 28.823 70 27.357V14h3.49v12.59c0 .143.096.24.24.24h3.54c.143 0 .24-.097.24-.24V14H81z"/><mask id="b" fill="#fff"><use xlink:href="#a"/></mask><path fill="#044E6D" d="M86 30h4V14h-4M94 14h3.537v12.83H104V30H94M112.513 17.17v9.66h3.732c.145 0 .242-.097.242-.24v-9.18c0-.143-.097-.24-.242-.24h-3.732zm4.822-3.17c1.478 0 2.665 1.177 2.665 2.643v10.715c0 1.465-1.187 2.642-2.665 2.642H109V14h8.335z" mask="url(#b)"/><path fill="#04A1BC" d="M128.42 21.592V30H125V14h3.42l4.08 9.586L136.58 14H140v16h-3.42v-8.408l-2.59 5.934h-2.98M150.5 20.703L153.247 14H157l-4.71 10.618V30h-3.58v-5.382L144 14h3.753" mask="url(#b)"/><path fill="#044E6D" d="M164.415 17.17v3.797h3.958c.14 0 .235-.096.235-.24V17.41c0-.143-.094-.24-.235-.24h-3.958zM169.41 14c1.436 0 2.59 1.177 2.59 2.643v4.853c0 1.465-1.154 2.642-2.59 2.642h-4.995V30H161V14h8.41zM180.632 17.17v3.773h4.533c.15 0 .25-.096.25-.24V17.41c0-.143-.1-.24-.25-.24h-4.533zm2.48 6.944h-2.48V30H177V14h9.268c1.528 0 2.755 1.177 2.755 2.643v4.83c0 1.2-.827 2.21-1.98 2.545L190 30h-3.983l-2.905-5.886zM198.547 23.754h2.882l-1.442-5.334-1.44 5.334zM207 30h-3.554l-1.01-3.17h-4.922l-.96 3.17H193l5.235-16h3.506L207 30zM222 24.594v2.763c0 1.465-1.2 2.643-2.695 2.643h-5.61C212.2 30 211 28.822 211 27.357V16.643c0-1.466 1.2-2.643 2.695-2.643h5.61C220.8 14 222 15.177 222 16.643v2.4l-3.48.58v-2.21c0-.146-.097-.242-.244-.242h-3.48c-.146 0-.244.097-.244.242v9.176c0 .145.098.24.245.24h3.48c.146 0 .244-.095.244-.24v-2.57l3.48.576zM227 14h12v3.17h-4.22V30h-3.56V17.17H227M243 30h4V14h-4M262 24.594v2.763c0 1.465-1.2 2.643-2.695 2.643h-5.61C252.2 30 251 28.822 251 27.357V16.643c0-1.466 1.2-2.643 2.694-2.643h5.61C260.8 14 262 15.177 262 16.643v2.4l-3.48.58v-2.21c0-.146-.097-.242-.244-.242h-3.48c-.146 0-.244.097-.244.242v9.176c0 .145.098.24.245.24h3.48c.146 0 .244-.095.244-.24v-2.57l3.48.576zM267 14h9.976v3.17h-6.482v3.052h5.976v3.17h-5.976v3.437H277V30h-10" mask="url(#b)"/><path fill="#04A1BC" d="M281 31h2v-2h-2M289.95 27.697l2.05.38v.93c0 1.1-.83 1.993-1.92 1.993h-3.16c-1.07 0-1.92-.892-1.92-1.993v-5.013c0-1.1.85-1.994 1.92-1.994h3.16c1.09 0 1.92.893 1.92 1.994v.816l-2.05.38v-.703c0-.284-.22-.493-.498-.493h-1.83c-.276 0-.498.21-.498.493v4.026c0 .285.222.494.5.494h1.828c.277 0 .498-.21.498-.494v-.816zM300.7 24.487c0-.285-.24-.494-.54-.494h-2.32c-.3 0-.54.21-.54.494v4.025c0 .285.24.494.54.494h2.32c.3 0 .54-.21.54-.494v-4.025zm-5.7 4.52v-5.014c0-1.1.92-1.993 2.08-1.993h3.8c1.18 0 2.12.892 2.12 1.993v5.013c0 1.102-.94 1.994-2.12 1.994h-3.8c-1.16 0-2.08-.892-2.08-1.994zM307.248 31H305v-8.814h2.15v.67c.84-.317 2.444-.856 3.402-.856.8 0 1.388.316 1.74.8.938-.353 2.697-.8 3.636-.8 1.33 0 2.072.874 2.072 1.952V31h-2.248v-6.415c0-.28-.196-.483-.528-.483-.49 0-1.623.408-2.073.557-.33.13-.527.37-.527.65V31h-2.247v-6.415c0-.28-.196-.483-.528-.483-.49 0-1.622.408-2.072.557-.37.13-.528.427-.528.743V31zM20 28h7v-2h-7" mask="url(#b)"/><path fill="#044E6D" d="M11.91 30.364h2.752c.238 0 .43-.166.43-.39V28.08c0-.224-.192-.39-.43-.39H11.91v2.674zm2.72-4.294c.223-.016.38-.18.38-.39v-1.653c0-.225-.19-.39-.428-.39H11.91v2.433h2.72zM10 22h5.234c.94 0 1.687.706 1.687 1.577v2.147c0 .45-.35.946-.843 1.096.446.076.923.495.923 1.08v2.523c0 .87-.747 1.577-1.686 1.577H10V22z" mask="url(#b)"/><path fill="#04A1BC" d="M20.776 16.024V22H19V12h1.776l2.724 6.126L26.225 12H28v10h-1.775v-5.976l-1.944 4.264h-1.56" mask="url(#b)"/><path fill="#044E6D" d="M36.13 24.042c0-.225-.188-.39-.422-.39H32.87v2.406h2.838c.234 0 .42-.165.42-.39V24.04zM31 22h5.285c.95 0 1.715.736 1.715 1.652v2.406c0 .915-.764 1.652-1.715 1.652H32.87V32H31V22z" mask="url(#b)"/><path fill="#04A1BC" d="M23 31h2v-7h-2M309 47h1v-2h-1M312 47h1v-7h-1M319 40h-5v1.583h1.822V47h1.356v-5.417H319M289 38.007s-5.18-.377-9.603 4.378l-.928-1.44-1.47.373L279.347 45c.03-.048.063-.098.093-.15 3.652-5.955 9.56-6.843 9.56-6.843" mask="url(#b)"/><path fill="#044E6D" d="M280.522 44.03c-.245.255-.488.52-.72.81l-.122.15.722 1.01H282l-1.478-1.97zM277 46h1.6l.688-.977-.816-1.023L277 46zM292 41.13l-.043 1.09s-.853-.075-1.262-.075c-1.036 0-1.23.353-1.23 1.307 0 1.07.206 1.403 1.24 1.403.41 0 1.252-.076 1.252-.076L292 45.8s-1.154.2-1.76.2c-1.604 0-2.24-.754-2.24-2.548 0-1.69.668-2.452 2.276-2.452.623 0 1.724.13 1.724.13M297 47h2v-5.14h-2V47zm0-5.69h2V40h-2v1.31zM301.232 46h-1.59v-3.795H299v-1.12h.642v-.217c0-1.416.438-1.868 1.733-1.868.39 0 1.354.127 1.354.127l-.026 1.072s-.522-.02-.9-.02c-.453 0-.572.196-.572.698v.206h1.246l.522 1.12h-1.768V46zM304.78 42l1.376 2.594 1.09-2.594H309l-3.05 7h-1.745l1.125-2.552L303 42M277 41.236V40h-5v7h5v-1.235h-3.43V44.1H277v-1.234h-3.43v-1.63M285.71 43.7c-.075-.014-.156-.024-.243-.034-.087-.01-.165-.013-.234-.013-.305 0-.546.054-.724.162-.178.107-.267.28-.267.522 0 .16.034.283.102.37.07.086.152.148.248.19.097.04.2.063.31.073.108.01.203.014.284.014.093 0 .187-.008.28-.024.094-.015.175-.03.243-.04V43.7zm0-.953c0-.148-.025-.268-.075-.36-.05-.093-.118-.165-.205-.218-.087-.053-.195-.09-.323-.107-.128-.018-.27-.028-.425-.028-.337 0-.694.065-1.074.194-.088-.16-.153-.312-.197-.454-.043-.14-.065-.31-.065-.508.275-.092.55-.16.823-.203.274-.043.53-.065.766-.065.648 0 1.154.154 1.52.462.364.308.546.802.546 1.48v2.772c-.218.068-.483.133-.795.194-.31.06-.663.092-1.056.092-.32 0-.61-.028-.875-.083-.264-.055-.492-.147-.682-.277-.19-.13-.336-.296-.44-.5-.102-.202-.153-.452-.153-.748 0-.295.063-.543.19-.744.13-.2.294-.36.497-.48.202-.12.428-.207.677-.26.25-.052.5-.078.748-.078.18 0 .38.01.598.027v-.11zM293.757 43.088h-.742l-.015-.27L294.88 40h.476v1.966h1.382c.022.105.037.198.045.28.007.084.012.17.012.26 0 .097-.005.19-.012.28-.008.09-.023.19-.045.302h-1.382v1.71c0 .215.018.388.057.52.038.13.093.235.166.31.07.077.16.13.267.157.106.027.232.04.377.04.114 0 .226-.007.337-.024l.292-.046c.053.13.09.268.114.41.022.142.034.268.034.38 0 .075 0 .14-.006.19-.003.053-.01.103-.017.15-.35.078-.712.116-1.084.116-.694 0-1.222-.147-1.588-.44-.365-.295-.548-.775-.548-1.44v-2.032z" mask="url(#b)"/><text fill="#04A1BC" mask="url(#b)" font-family="LucidaGrande, Lucida Grande" font-size="8.273" letter-spacing=".414"><tspan x="243" y="46">POWE</tspan> <tspan x="243" y="56">RED </tspan> <tspan x="263.185" y="56">B</tspan></text><text fill="#04A1BC" mask="url(#b)" font-family="LucidaGrande, Lucida Grande" font-size="8.273"><tspan x="266" y="46">Y</tspan></text></g></svg>