<?xml version="1.0" encoding="UTF-8"?>
<svg width="34px" height="34px" viewBox="0 0 34 34" version="1.1" xmlns="http://www.w3.org/2000/svg" xmlns:xlink="http://www.w3.org/1999/xlink">
    <!-- Generator: Sketch 47.1 (45422) - http://www.bohemiancoding.com/sketch -->
    <title>Button Copy 2</title>
    <desc>Created with Sketch.</desc>
    <defs>
        <rect id="path-1" x="0" y="0" width="34" height="34" rx="17"></rect>
        <path d="M15.875,1.5 L2.125,1.5 C1.75,1.5 1.5,1.75 1.5,2.125 L1.5,15.875 C1.5,16.25 1.75,16.5 2.125,16.5 L15.875,16.5 C16.25,16.5 16.5,16.25 16.5,15.875 L16.5,2.125 C16.5,1.75 16.25,1.5 15.875,1.5 Z M5.9375,14.3125 L3.75,14.3125 L3.75,7.125 L6,7.125 L6,14.3125 L5.9375,14.3125 Z M4.8125,6.125 C4.125,6.125 3.5,5.5625 3.5,4.8125 C3.5,4.125 4.0625,3.5 4.8125,3.5 C5.5,3.5 6.125,4.0625 6.125,4.8125 C6.125,5.5625 5.5625,6.125 4.8125,6.125 Z M14.3125,14.3125 L12.0625,14.3125 L12.0625,10.8125 C12.0625,10 12.0625,8.9375 10.9375,8.9375 C9.75,8.9375 9.625,9.8125 9.625,10.75 L9.625,14.3125 L7.375,14.3125 L7.375,7.125 L9.5,7.125 L9.5,8.125 L9.5,8.125 C9.8125,7.5625 10.5,7 11.625,7 C13.875,7 14.3125,8.5 14.3125,10.4375 L14.3125,14.3125 Z" id="path-3"></path>
    </defs>
    <g id="Footer" stroke="none" stroke-width="1" fill="none" fill-rule="evenodd" opacity="0.99000001">
        <g id="Footer---Mockup" transform="translate(-1282.000000, -568.000000)">
            <g id="Group-3-Copy-2" transform="translate(1238.000000, 568.000000)">
                <g id="Button/Icon---Rounded" transform="translate(44.000000, 0.000000)">
                    <g id="Mixin/Button/Fill---Rounded">
                        <mask id="mask-2" fill="white">
                            <use xlink:href="#path-1"></use>
                        </mask>
                        <g id="Mask"></g>
                        <g id="Mixin/Fill/Primary" mask="url(#mask-2)" fill-rule="evenodd" fill="#044E6D">
                            <rect id="Box" x="0" y="0" width="34" height="34"></rect>
                        </g>
                    </g>
                    <g id="Icon/App/LinkedIn" transform="translate(8.000000, 8.000000)">
                        <rect id="Bounding-Box" x="0" y="0" width="18" height="18"></rect>
                        <mask id="mask-4" fill="white">
                            <use xlink:href="#path-3"></use>
                        </mask>
                        <use id="Mask" fill="#0077B5" fill-rule="evenodd" xlink:href="#path-3"></use>
                        <g id="Mixin/Fill/White" mask="url(#mask-4)" fill-rule="evenodd" fill="#FFFFFF">
                            <rect id="Box" x="0" y="0" width="18" height="18"></rect>
                        </g>
                    </g>
                </g>
            </g>
        </g>
    </g>
</svg>