<svg xmlns="http://www.w3.org/2000/svg" width="40" height="40" viewBox="0 0 40 40" xmlns:xlink="http://www.w3.org/1999/xlink"><defs><path id="a" d="M0 0h51v45H0"/></defs><g fill="none" fill-rule="evenodd" transform="translate(-6 -2)"><mask id="b" fill="#fff"><use xlink:href="#a"/></mask><path stroke="#252B33" stroke-width="2" d="M45 32.407v1.718c-.516 3.797-4.293 6.81-8.975 6.874-3.353.045-7.312-1.773-10.502-3.438C16.883 33.054 8.88 23.365 7 13.312v-2.29C8.128 6.674 9.848 2.92 15.402 3c1.325 1.277 1.91 2.677 2.864 4.39.692 1.244 2.545 3.587 2.483 4.775-.146 2.78-4.583 3.23-4.775 5.537-.108 1.3 1.72 3.667 2.482 4.774.97 1.408 2.15 2.925 3.247 4.01 1.226 1.213 6.583 5.81 8.783 5.537 2.045-.255 2.963-4.65 5.347-4.774.998-.05 3.143 1.49 4.583 2.292 1.88 1.047 3.676 2.106 4.583 2.865" mask="url(#b)"/></g></svg>